name rise38.3101peak57.3503fall81.6963.mot
datacolumns 19
datarows 29
range 14.97494400000000 15.02161100000000
endheader
time	ground_force1_vx	ground_force1_vy	ground_force1_vz	ground_force1_px	ground_force1_py	ground_force1_pz	ground_force2_vx	ground_force2_vy	ground_force2_vz	ground_force2_px	ground_force2_py	ground_force2_pz	ground_torque1_x	ground_torque1_y	ground_torque1_z	ground_torque2_x	ground_torque2_y	ground_torque2_z	
14.97494400000000	-50.28793400000000	801.98441600000001	56.79851900000000	0.13715700000000	0.00000000000000	0.10672700000000	-9.77372400000000	57.06594500000000	11.25030600000000	0.37666600000000	0.00000000000000	-0.07951900000000	0.00000000000000	26.60288700000000	0.00000000000000	0.00000000000000	7.70638600000000	0.00000000000000	
14.97661800000000	-50.33288600000000	799.01124600000003	56.58097400000000	0.13652600000000	0.00000000000000	0.10673800000000	-10.23010200000000	63.01077400000000	12.02917900000000	0.37819400000000	0.00000000000000	-0.08005900000000	0.00000000000000	26.44557200000000	0.00000000000000	0.00000000000000	8.29441000000000	0.00000000000000	
14.97828400000000	-50.37393300000000	795.90734999999995	56.33328800000000	0.13590500000000	0.00000000000000	0.10674500000000	-10.53471900000000	68.75064000000000	12.68397000000000	0.37968100000000	0.00000000000000	-0.08057000000000	0.00000000000000	26.28256600000000	0.00000000000000	0.00000000000000	8.80776000000000	0.00000000000000	
14.97994800000000	-50.41172100000000	792.67457800000000	56.05531400000000	0.13529500000000	0.00000000000000	0.10674900000000	-10.68887700000000	74.27387400000001	13.21397600000000	0.38113500000000	0.00000000000000	-0.08105400000000	0.00000000000000	26.11414000000000	0.00000000000000	0.00000000000000	9.24548300000000	0.00000000000000	
14.98161200000000	-50.44690600000000	789.31485999999995	55.74697400000000	0.13469700000000	0.00000000000000	0.10674900000000	-10.69966300000000	79.59107200000000	13.62423000000000	0.38256400000000	0.00000000000000	-0.08151600000000	0.00000000000000	25.94057400000000	0.00000000000000	0.00000000000000	9.61042800000000	0.00000000000000	
14.98328500000000	-50.48015000000000	785.83019200000001	55.40826200000000	0.13411100000000	0.00000000000000	0.10674500000000	-10.57857500000000	84.73101400000000	13.92425100000000	0.38397400000000	0.00000000000000	-0.08195600000000	0.00000000000000	25.76215700000000	0.00000000000000	0.00000000000000	9.90844500000000	0.00000000000000	
14.98494500000000	-50.51212100000000	782.22262699999999	55.03924400000000	0.13353900000000	0.00000000000000	0.10673800000000	-10.34003800000000	89.73579300000000	14.12664000000000	0.38536700000000	0.00000000000000	-0.08237700000000	0.00000000000000	25.57918400000000	0.00000000000000	0.00000000000000	10.14748700000000	0.00000000000000	
14.98661700000000	-50.54349200000000	778.49425900000006	54.64005500000000	0.13298100000000	0.00000000000000	0.10672600000000	-9.99993100000000	94.65570099999999	14.24567000000000	0.38674900000000	0.00000000000000	-0.08278000000000	0.00000000000000	25.39195600000000	0.00000000000000	0.00000000000000	10.33668500000000	0.00000000000000	
14.98828100000000	-50.57493400000000	774.64721499999996	54.21090400000000	0.13243800000000	0.00000000000000	0.10671000000000	-9.57425000000000	99.54431500000000	14.29598000000000	0.38812000000000	0.00000000000000	-0.08316800000000	0.00000000000000	25.20077500000000	0.00000000000000	0.00000000000000	10.48549100000000	0.00000000000000	
14.98995200000000	-50.60711500000000	770.68364099999997	53.75206500000000	0.13191200000000	0.00000000000000	0.10668900000000	-9.07799300000000	104.45415000000000	14.29146600000000	0.38948300000000	0.00000000000000	-0.08354100000000	0.00000000000000	25.00594800000000	0.00000000000000	0.00000000000000	10.60293700000000	0.00000000000000	
14.99161200000000	-50.64069500000000	766.60568899999998	53.26388300000000	0.13140200000000	0.00000000000000	0.10666400000000	-8.52431400000000	109.43312600000000	14.24441100000000	0.39083800000000	0.00000000000000	-0.08390000000000	0.00000000000000	24.80778100000000	0.00000000000000	0.00000000000000	10.69704900000000	0.00000000000000	
14.99328500000000	-50.67632800000000	762.41551000000004	52.74677100000000	0.13091000000000	0.00000000000000	0.10663300000000	-7.92395900000000	114.52196800000000	14.16489700000000	0.39218600000000	0.00000000000000	-0.08424800000000	0.00000000000000	24.60657600000000	0.00000000000000	0.00000000000000	10.77443700000000	0.00000000000000	
14.99494900000000	-50.71464900000000	758.11524099999997	52.20120700000000	0.13043600000000	0.00000000000000	0.10659800000000	-7.28499000000000	119.75258400000000	14.06047800000000	0.39352800000000	0.00000000000000	-0.08458400000000	0.00000000000000	24.40263600000000	0.00000000000000	0.00000000000000	10.84006000000000	0.00000000000000	
14.99661500000000	-50.75627800000000	753.70699000000002	51.62773300000000	0.12998000000000	0.00000000000000	0.10655700000000	-6.61275300000000	125.14735400000001	13.93610400000000	0.39486100000000	0.00000000000000	-0.08491000000000	0.00000000000000	24.19625800000000	0.00000000000000	0.00000000000000	10.89715400000000	0.00000000000000	
14.99828100000000	-50.80181300000000	749.19283499999995	51.02695100000000	0.12954400000000	0.00000000000000	0.10651000000000	-5.91006400000000	130.71924100000001	13.79424500000000	0.39618600000000	0.00000000000000	-0.08522600000000	0.00000000000000	23.98773000000000	0.00000000000000	0.00000000000000	10.94730200000000	0.00000000000000	
14.99994600000000	-50.85182500000000	744.57480399999997	50.39952600000000	0.12912800000000	0.00000000000000	0.10645800000000	-5.17754200000000	136.47253599999999	13.63518500000000	0.39750200000000	0.00000000000000	-0.08553300000000	0.00000000000000	23.77733700000000	0.00000000000000	0.00000000000000	10.99060300000000	0.00000000000000	
15.00161200000000	-50.90685400000000	739.85487400000000	49.74617700000000	0.12873200000000	0.00000000000000	0.10640000000000	-4.41404800000000	142.40408700000000	13.45741800000000	0.39880600000000	0.00000000000000	-0.08583100000000	0.00000000000000	23.56535100000000	0.00000000000000	0.00000000000000	11.02593100000000	0.00000000000000	
15.00327700000000	-50.96740800000000	735.03495799999996	49.06768100000000	0.12835700000000	0.00000000000000	0.10633600000000	-3.61718200000000	148.50482600000001	13.25810800000000	0.40009800000000	0.00000000000000	-0.08612200000000	0.00000000000000	23.35203600000000	0.00000000000000	0.00000000000000	11.05123000000000	0.00000000000000	
15.00494900000000	-51.03395200000000	730.11689600000000	48.36486300000000	0.12800200000000	0.00000000000000	0.10626600000000	-2.78377200000000	154.76141100000001	13.03355700000000	0.40137600000000	0.00000000000000	-0.08640500000000	0.00000000000000	23.13764200000000	0.00000000000000	0.00000000000000	11.06382500000000	0.00000000000000	
15.00661300000000	-51.10690900000000	725.10245199999997	47.63859900000000	0.12766900000000	0.00000000000000	0.10619000000000	-1.91034700000000	161.15786100000000	12.77966300000000	0.40263800000000	0.00000000000000	-0.08668200000000	0.00000000000000	22.92240900000000	0.00000000000000	0.00000000000000	11.06072200000000	0.00000000000000	
15.00827800000000	-51.18665500000000	719.99330299999997	46.88981000000000	0.12735700000000	0.00000000000000	0.10610700000000	-0.99353600000000	167.67704599999999	12.49231100000000	0.40388300000000	0.00000000000000	-0.08695300000000	0.00000000000000	22.70655900000000	0.00000000000000	0.00000000000000	11.03888000000000	0.00000000000000	
15.00994400000000	-51.27351100000000	714.79103399999997	46.11945900000000	0.12706600000000	0.00000000000000	0.10601900000000	-0.03039100000000	174.30196200000000	12.16770400000000	0.40510700000000	0.00000000000000	-0.08721700000000	0.00000000000000	22.49030400000000	0.00000000000000	0.00000000000000	10.99543300000000	0.00000000000000	
15.01161200000000	-51.36774500000000	709.49713399999996	45.32854900000000	0.12679600000000	0.00000000000000	0.10592400000000	0.98136900000000	181.01673900000000	11.80260900000000	0.40631000000000	0.00000000000000	-0.08747600000000	0.00000000000000	22.27383400000000	0.00000000000000	0.00000000000000	10.92786500000000	0.00000000000000	
15.01327800000000	-51.46955900000000	704.11298999999997	44.51811800000000	0.12654600000000	0.00000000000000	0.10582200000000	2.04321600000000	187.80734500000000	11.39452100000000	0.40748800000000	0.00000000000000	-0.08772900000000	0.00000000000000	22.05732800000000	0.00000000000000	0.00000000000000	10.83412800000000	0.00000000000000	
15.01495200000000	-51.57909400000000	698.63988099999995	43.68923600000000	0.12631800000000	0.00000000000000	0.10571400000000	3.15574200000000	194.66201899999999	10.94174200000000	0.40864000000000	0.00000000000000	-0.08797800000000	0.00000000000000	21.84094500000000	0.00000000000000	0.00000000000000	10.71270700000000	0.00000000000000	
15.01661300000000	-51.69642100000000	693.07898200000000	42.84300300000000	0.12611000000000	0.00000000000000	0.10560000000000	4.31866400000000	201.57143199999999	10.44339900000000	0.40976400000000	0.00000000000000	-0.08822200000000	0.00000000000000	21.62482400000000	0.00000000000000	0.00000000000000	10.56263400000000	0.00000000000000	
15.01827700000000	-51.82153800000000	687.43135500000005	41.98054100000000	0.12592100000000	0.00000000000000	0.10547900000000	5.53088800000000	208.52862999999999	9.89939900000000	0.41085800000000	0.00000000000000	-0.08846100000000	0.00000000000000	21.40909000000000	0.00000000000000	0.00000000000000	10.38347400000000	0.00000000000000	
15.01994600000000	-51.95436900000000	681.69795199999999	41.10299700000000	0.12575100000000	0.00000000000000	0.10535100000000	6.79060900000000	215.52880999999999	9.31034500000000	0.41191900000000	0.00000000000000	-0.08869600000000	0.00000000000000	21.19384700000000	0.00000000000000	0.00000000000000	10.17526600000000	0.00000000000000	
15.02161100000000	-52.09475900000000	675.87961499999994	40.21153500000000	0.12560100000000	0.00000000000000	0.10521700000000	8.09544100000000	222.56896800000001	8.67741900000000	0.41294500000000	0.00000000000000	-0.08892700000000	0.00000000000000	20.97918000000000	0.00000000000000	0.00000000000000	9.93845700000000	0.00000000000000	
